HIERARCHY
ROOT Hips
{
  OFFSET -25.4992 47.4658 0.522821
  CHANNELS 6 Xposition Yposition Zposition Zrotation Xrotation Yrotation
  JOINT Bip01_Pelvis
  {
    OFFSET 0 0 0
    CHANNELS 6 Xposition Yposition Zposition Zrotation Xrotation Yrotation
    JOINT Bip01_Spine
    {
      OFFSET 7.92815 1.03427 -0.957866
      CHANNELS 6 Xposition Yposition Zposition Zrotation Xrotation Yrotation
      JOINT Bip01_Spine1
      {
        OFFSET 14.2482 -0.00839019 0.000894789
        CHANNELS 6 Xposition Yposition Zposition Zrotation Xrotation Yrotation
        JOINT Bip01_Neck
        {
          OFFSET 16.1384 -3.98645 0.000135839
          CHANNELS 6 Xposition Yposition Zposition Zrotation Xrotation Yrotation
          JOINT Bip01_Neck1
          {
            OFFSET 9.69266 -0.00491233 0
            CHANNELS 6 Xposition Yposition Zposition Zrotation Xrotation Yrotation
            JOINT Bip01_Head
            {
              OFFSET 6.2355 0 0
              CHANNELS 6 Xposition Yposition Zposition Zrotation Xrotation Yrotation
              JOINT BN_Mouth_01
              {
                OFFSET 4.58056 2.14338 0
                CHANNELS 6 Xposition Yposition Zposition Zrotation Xrotation Yrotation
                End Site
                {
                  OFFSET 0 0 0
                }
              }
            }
          }
          JOINT Bip01_L_Clavicle
          {
            OFFSET -0.933029 -3.98291 -6.88005
            CHANNELS 6 Xposition Yposition Zposition Zrotation Xrotation Yrotation
            JOINT Bip01_L_UpperArm
            {
              OFFSET 15.6802 0 0
              CHANNELS 6 Xposition Yposition Zposition Zrotation Xrotation Yrotation
              JOINT Bip01_L_Forearm
              {
                OFFSET 15.3149 0 0
                CHANNELS 6 Xposition Yposition Zposition Zrotation Xrotation Yrotation
                JOINT Bip01_L_Hand
                {
                  OFFSET 16.178 0 0
                  CHANNELS 6 Xposition Yposition Zposition Zrotation Xrotation Yrotation
                  JOINT Bip01_L_Finger0
                  {
                    OFFSET 12.9992 0 0
                    CHANNELS 6 Xposition Yposition Zposition Zrotation Xrotation Yrotation
                    End Site
                    {
                      OFFSET 0 0 0
                    }
                  }
                }
              }
              JOINT BN__UpperArm_L_01
              {
                OFFSET 4.92586 2.56729 1.95639
                CHANNELS 6 Xposition Yposition Zposition Zrotation Xrotation Yrotation
                End Site
                {
                  OFFSET 0 0 0
                }
              }
            }
          }
          JOINT Bip01_R_Clavicle
          {
            OFFSET -1.90751 -3.34722 7.0168
            CHANNELS 6 Xposition Yposition Zposition Zrotation Xrotation Yrotation
            JOINT Bip01_R_UpperArm
            {
              OFFSET 15.6801 0 0
              CHANNELS 6 Xposition Yposition Zposition Zrotation Xrotation Yrotation
              JOINT Bip01_R_Forearm
              {
                OFFSET 15.3149 0 0
                CHANNELS 6 Xposition Yposition Zposition Zrotation Xrotation Yrotation
                JOINT Bip01_R_Hand
                {
                  OFFSET 16.1779 0 0
                  CHANNELS 6 Xposition Yposition Zposition Zrotation Xrotation Yrotation
                  JOINT Bip01_R_Finger0
                  {
                    OFFSET 12.9991 0 0
                    CHANNELS 6 Xposition Yposition Zposition Zrotation Xrotation Yrotation
                    End Site
                    {
                      OFFSET 0 0 0
                    }
                  }
                }
              }
              JOINT BN__UpperArm_R_01
              {
                OFFSET 4.92584 2.56728 -1.95638
                CHANNELS 6 Xposition Yposition Zposition Zrotation Xrotation Yrotation
                End Site
                {
                  OFFSET 0 0 0
                }
              }
            }
          }
        }
      }
      JOINT Bip01_L_Thigh
      {
        OFFSET -8.91231 -1.85462 5.82833
        CHANNELS 6 Xposition Yposition Zposition Zrotation Xrotation Yrotation
        JOINT Bip01_L_Calf
        {
          OFFSET 15.7566 0 0
          CHANNELS 6 Xposition Yposition Zposition Zrotation Xrotation Yrotation
          JOINT Bip01_L_HorseLink
          {
            OFFSET 16.2363 0 0
            CHANNELS 6 Xposition Yposition Zposition Zrotation Xrotation Yrotation
            JOINT Bip01_L_Foot
            {
              OFFSET 13.9816 0 0
              CHANNELS 6 Xposition Yposition Zposition Zrotation Xrotation Yrotation
              JOINT Bip01_L_Toe0
              {
                OFFSET 7.68594 5.03696 0
                CHANNELS 6 Xposition Yposition Zposition Zrotation Xrotation Yrotation
                End Site
                {
                  OFFSET 0 0 0
                }
              }
            }
          }
        }
      }
      JOINT Bip01_R_Thigh
      {
        OFFSET -6.80264 -1.57702 -6.62463
        CHANNELS 6 Xposition Yposition Zposition Zrotation Xrotation Yrotation
        JOINT Bip01_R_Calf
        {
          OFFSET 15.7566 0 0
          CHANNELS 6 Xposition Yposition Zposition Zrotation Xrotation Yrotation
          JOINT Bip01_R_HorseLink
          {
            OFFSET 16.2363 0 0
            CHANNELS 6 Xposition Yposition Zposition Zrotation Xrotation Yrotation
            JOINT Bip01_R_Foot
            {
              OFFSET 13.9816 0 0
              CHANNELS 6 Xposition Yposition Zposition Zrotation Xrotation Yrotation
              JOINT Bip01_R_Toe0
              {
                OFFSET 7.68597 5.03696 0
                CHANNELS 6 Xposition Yposition Zposition Zrotation Xrotation Yrotation
                End Site
                {
                  OFFSET 0 0 0
                }
              }
            }
          }
        }
      }
    }
    JOINT BN_Tail_01
    {
      OFFSET -7.9584 -2.82211 0
      CHANNELS 6 Xposition Yposition Zposition Zrotation Xrotation Yrotation
      JOINT BN_Tail_02
      {
        OFFSET 10.9082 0 0.00113176
        CHANNELS 6 Xposition Yposition Zposition Zrotation Xrotation Yrotation
        End Site
        {
          OFFSET 0 0 0
        }
      }
    }
  }
}
MOTION
Frames:	4
Frame Time:	0.0333333
-24.1804 43.8403 -6.4272e-006 -88.9338 -83.373 11.6236 0 -2.38419e-007 0 -89.9441 -3.50835e-015 -90 7.98488 1.06468 -3.09944e-005 10.9304 0.196692 0.550312 14.2467 -0.00817489 -0.000176668 -15.2819 1.18266 -11.8147 16.1423 -3.99012 0.000285625 -18.9305 -2.14534 -1.70169 9.69215 -0.00480652 0.000281095 -13.7466 -3.24677 6.87258 6.2355 1.90735e-006 -2.98023e-007 -22.1388 0.552362 -2.42223 4.58058 2.14338 -3.57628e-007 -109.928 -0.0191955 -179.986 -3.79558 -1.35249 -6.91895 -161.431 -19.0189 -90.9677 15.6801 7.10544e-015 -2.86102e-006 -34.8092 -29.2667 62.8031 15.3149 0 3.33786e-006 -68.6672 2.23338e-005 -1.61304e-006 16.1779 -1.19211e-006 2.86102e-006 153.571 -87.8582 155.7 12.9992 -3.33794e-006 -7.15245e-007 -0.502713 1.56006 -0.839551 6.09987 3.12148 -5.23854 -126.021 -79.3773 -131.367 -3.38156 -1.87508 7.0106 -160.835 17.5437 89.0394 15.6801 7.10543e-015 -9.53673e-007 21.4388 82.1968 -135.971 15.3149 -5.12602e-006 4.76837e-007 -46.9585 -5.25601e-006 1.14033e-005 16.178 3.81473e-006 9.53673e-007 5.30337 84.945 -14.0222 12.9992 -4.76845e-007 1.90733e-006 -2.61681 -0.773381 18.491 5.03888 3.89274 -1.75287 53.9721 -79.3762 48.6257 -8.10224 0.490797 6.2375 -139.706 12.2166 -169.765 15.7566 -8.22544e-006 -9.53673e-007 -61.7217 -4.76013e-006 -5.49375e-008 16.2363 1.90735e-006 9.53673e-007 85.8421 -1.82019e-006 4.84554e-006 13.9816 -9.53675e-007 9.53672e-007 -48.7254 -4.28833 -2.15005 7.68591 5.03697 -9.53672e-007 89.9963 -8.53755e-007 4.54941e-006 -7.98076 0.447277 -6.39531 -110.862 -0.89013 171.548 15.7566 -5.72204e-006 -1.90735e-006 -63.309 -1.35276e-006 1.99791e-006 16.2363 -3.8147e-006 -2.86102e-006 72.303 2.02471e-007 2.48607e-006 13.9816 0 9.53673e-007 -6.74771 7.8511 9.10641 7.68596 5.03696 -1.90734e-006 89.9962 -1.57456e-005 1.13455e-005 -7.95841 -2.8221 7.15255e-007 -63.9017 2.4966 -178.309 10.9082 0 0.00121394 29.9375 -0.00750011 26.3631 
-24.3044 43.6437 -6.40107e-006 -88.9492 -83.4084 11.9241 8.29818e-007 -4.54102e-008 3.04486e-006 -89.8593 0.584149 -89.0099 7.97231 1.14675 0.134678 11.3002 -0.092177 -0.0436165 14.2468 -0.00812551 -0.000129405 -15.0646 1.25015 -12.5716 16.1424 -3.99015 0.000299853 -17.3179 -2.21642 -0.755097 9.69207 -0.00480576 0.000266793 -14.9637 -3.71923 5.48519 6.23545 -7.59832e-008 7.98673e-007 -22.2476 0.957049 -1.20549 4.58054 2.14335 5.2357e-007 -110.195 -0.000106811 -179.997 -3.72535 -1.24238 -6.97765 -162.756 -19.3129 -90.0677 15.68 1.82495e-006 -1.69679e-006 -35.3813 -29.0945 62.2726 15.3147 -1.91004e-006 2.42897e-006 -69.2612 2.41812e-005 4.76378e-006 16.1778 -6.40295e-006 -4.99826e-007 151.925 -87.8437 154.495 12.9991 -2.65483e-007 -5.31014e-006 -0.49626 1.5669 -0.412891 6.10219 3.11973 -5.25402 -126.021 -79.3773 -131.367 -3.54084 -1.78196 6.9561 -162.72 16.931 90.0396 15.6801 5.26719e-006 5.77225e-006 19.2421 80.5893 -133.089 15.3148 -1.35583e-005 5.06719e-008 -50.2084 -3.5641e-005 -2.5095e-005 16.1779 9.21137e-006 8.90543e-006 12.5799 84.6749 -21.2326 12.9992 6.64277e-006 -6.85275e-006 -2.6171 -0.773157 18.9981 5.05218 3.90154 -1.65143 53.9723 -79.3762 48.6259 -8.03751 0.42768 6.18917 -139.866 12.4445 -169.49 15.7565 -5.78799e-006 -2.22022e-006 -62.1173 -1.5984e-005 -1.28829e-005 16.2362 1.33546e-005 2.8946e-006 86.9406 -1.87099e-005 -1.17992e-005 13.9815 -7.12311e-006 -8.84009e-007 -49.4451 -4.2623 -2.17891 7.68588 5.03695 -1.36024e-006 89.9809 -8.61297e-007 1.7973e-005 -8.04761 0.448229 -6.44422 -111.793 -0.832436 171.495 15.7566 5.10722e-006 -4.35044e-006 -64.7982 -1.9616e-005 -9.27056e-006 16.2362 -6.89512e-007 -1.8415e-006 73.394 -2.2227e-005 1.10953e-005 13.9816 3.29847e-006 -3.67425e-006 -7.154 7.49132 9.25271 7.68593 5.03693 -4.07492e-006 89.9685 1.16205e-005 9.89787e-006 -7.95838 -2.8221 -1.09809e-006 -63.4258 2.5208 -178.283 10.9082 4.86741e-006 0.00121335 30.0301 -0.302941 26.2066 
-24.572 43.2055 -6.34396e-006 -88.9703 -83.4838 12.6211 -1.58039e-007 -1.53062e-007 1.21834e-006 -89.6007 1.90957 -86.7975 7.93277 1.33078 0.43593 12.1078 -0.757892 -1.37565 14.2471 -0.00810017 -8.84625e-005 -14.5857 1.3929 -14.2812 16.1426 -3.99024 0.00030523 -13.6793 -2.27596 1.38283 9.69212 -0.00480914 0.000247178 -17.7264 -4.67672 2.30998 6.23551 1.34668e-006 -6.24784e-007 -22.5704 1.79854 1.56798 4.58059 2.14337 -7.50156e-007 -110.461 0.019165 179.993 -3.55093 -1.00179 -7.10634 -165.668 -20.0389 -87.9938 15.6801 -4.70778e-006 -1.34733e-006 -36.6613 -28.7272 61.0703 15.3149 3.4435e-006 1.18025e-007 -70.5327 -1.92379e-006 1.70389e-005 16.1779 -2.48955e-007 -8.20573e-008 148.525 -87.7975 152.114 12.9992 -8.0493e-007 -5.64581e-007 -0.489833 1.57378 0.013736 6.10896 3.11487 -5.29831 -126.021 -79.3773 -131.367 -3.88755 -1.55617 6.82407 -166.887 15.4608 92.3157 15.6801 -9.04879e-007 -3.56518e-006 18.2771 77.2239 -130.618 15.3149 3.77252e-006 1.16323e-006 -56.6734 4.18859e-005 -1.64571e-005 16.1779 -1.92236e-006 3.62121e-007 26.6291 83.847 -35.5904 12.9992 -1.00986e-007 4.23561e-006 -2.61746 -0.772984 19.5054 5.09009 3.92661 -1.36374 53.9721 -79.3762 48.6257 -7.89171 0.2848 6.07648 -140.15 12.9909 -168.861 15.7566 -2.65014e-006 5.90326e-007 -62.8617 -4.25294e-006 9.51033e-006 16.2363 3.31188e-007 -1.53279e-006 89.4092 3.74141e-006 -1.08433e-005 13.9816 2.11476e-006 3.52965e-006 -51.1074 -4.17727 -2.25393 7.68591 5.03697 1.28959e-006 89.9656 3.21606e-006 -1.10295e-005 -8.19524 0.452299 -6.55223 -114.113 -0.43129 171.472 15.7566 -5.29096e-006 -2.77823e-006 -68.3628 -8.8733e-006 5.82901e-006 16.2363 -3.77998e-006 -3.65838e-006 75.4313 3.21837e-006 6.46143e-006 13.9816 1.70286e-006 -1.57097e-006 -7.6711 6.91811 9.50151 7.68596 5.03695 -3.02388e-006 89.9409 1.17669e-005 4.60649e-007 -7.95841 -2.8221 6.2136e-007 -62.1111 2.61534 -178.246 10.9082 1.50757e-006 0.00121383 30.2299 -1.28484 25.696 
-24.9984 42.5919 -6.26361e-006 -88.9821 -83.5723 13.5331 4.77475e-007 -2.39024e-007 1.75994e-006 -89.3212 3.7648 -83.8163 7.85287 1.58689 0.837709 13.1871 -1.68793 -3.20649 14.2473 -0.0080632 -4.39211e-005 -13.847 1.53216 -16.5485 16.1427 -3.99028 0.00031742 -8.78605 -2.13911 4.17614 9.69209 -0.00480852 0.000232869 -21.4776 -5.67911 -2.01876 6.2355 4.68554e-006 2.72885e-007 -23.1492 2.68677 5.3937 4.58058 2.14338 -7.97454e-008 -110.728 0.0384216 179.983 -3.29716 -0.696425 -7.26352 -169.498 -21.2094 -85.2191 15.6801 -4.32162e-006 -1.2e-006 -38.3771 -28.3514 59.3963 15.3148 1.00196e-005 -2.37509e-006 -72.2076 -3.42916e-005 1.17998e-005 16.1779 -7.03492e-006 5.43452e-006 144.442 -87.6378 149.452 12.9992 -4.34166e-006 -6.09552e-006 -0.477702 1.58521 0.650231 6.1195 3.1072 -5.36791 -126.021 -79.3773 -131.367 -4.31215 -1.21786 6.63521 -172.285 13.2091 95.228 15.6801 -9.37392e-008 -1.38978e-006 20.0663 73.4405 -130.348 15.3149 1.94834e-006 1.07375e-006 -64.4215 2.22946e-005 5.95147e-006 16.1779 -8.72298e-006 2.20478e-006 41.2254 82.4543 -50.3747 12.9992 -5.58496e-007 7.52917e-006 -2.61787 -0.771478 20.8428 5.14918 3.9657 -0.914579 53.9724 -79.3762 48.6259 -7.68829 0.0846251 5.92356 -140.579 13.6539 -167.989 15.7566 -3.20166e-006 -7.93283e-007 -63.8109 -5.66621e-006 1.2127e-005 16.2363 2.22332e-007 -2.77254e-007 92.6736 7.33202e-006 -1.13589e-005 13.9816 2.11607e-008 1.53885e-006 -53.4555 -4.07857 -2.37175 7.6859 5.03697 -9.1989e-008 89.9502 3.24617e-006 1.79349e-005 -8.39514 0.457506 -6.6846 -117.282 0.0567976 171.462 15.7566 1.46227e-006 -2.14209e-006 -73.1848 -6.95985e-006 1.35351e-005 16.2363 -1.11317e-005 -2.94003e-006 78.1353 4.27338e-006 1.84721e-006 13.9816 7.63283e-006 -1.16191e-006 -8.41343 6.10591 9.8465 7.68597 5.03696 -2.55429e-006 89.9132 1.19778e-005 -9.51366e-006 -7.9584 -2.8221 8.99452e-008 -60.1289 2.76072 -178.178 10.9082 4.23895e-008 0.00121318 30.4211 -2.26848 25.1886 
